<svg xmlns="http://www.w3.org/2000/svg" width="1600" height="900" viewBox="0 0 1600 900" role="img" aria-label="The Best Domain Name cover">
  <defs>
    <linearGradient id="bg" x1="0" x2="1" y1="0" y2="1">
      <stop offset="0%" stop-color="#0e1320" />
      <stop offset="100%" stop-color="#181f2c" />
    </linearGradient>
  </defs>
  <rect width="1600" height="900" fill="url(#bg)" />
  <rect x="120" y="110" width="300" height="300" fill="#f5f7fa" opacity="0.92" />
  <rect x="130" y="120" width="80" height="80" fill="#121826" />
  <rect x="220" y="120" width="40" height="40" fill="#121826" />
  <rect x="310" y="120" width="80" height="80" fill="#121826" />
  <rect x="130" y="210" width="40" height="40" fill="#121826" />
  <rect x="180" y="210" width="40" height="40" fill="#121826" />
  <rect x="260" y="210" width="40" height="40" fill="#121826" />
  <rect x="310" y="210" width="40" height="40" fill="#121826" />
  <rect x="130" y="260" width="40" height="40" fill="#121826" />
  <rect x="220" y="260" width="40" height="40" fill="#121826" />
  <rect x="310" y="260" width="40" height="40" fill="#121826" />
  <rect x="130" y="310" width="80" height="80" fill="#121826" />
  <rect x="260" y="310" width="40" height="40" fill="#121826" />
  <rect x="310" y="310" width="80" height="80" fill="#121826" />
  <text x="480" y="280" fill="#f5f7fa" font-size="64" font-family="Georgia, serif">The Best Domain Name</text>
  <text x="480" y="350" fill="#b9c3d1" font-size="34" font-family="Georgia, serif">From a QR Code Perspective</text>
  <text x="480" y="430" fill="#8f9eb4" font-size="24" font-family="Arial, sans-serif">Experimental Forms · 2026</text>
</svg>
