<svg xmlns="http://www.w3.org/2000/svg" width="1600" height="900" viewBox="0 0 1600 900">
  <defs>
    <linearGradient id="bg" x1="0" y1="0" x2="1" y2="1">
      <stop offset="0%" stop-color="#151922" />
      <stop offset="100%" stop-color="#0f1320" />
    </linearGradient>
    <radialGradient id="glow" cx="50%" cy="35%" r="65%">
      <stop offset="0%" stop-color="#4d8cff" stop-opacity="0.22" />
      <stop offset="45%" stop-color="#59d4c7" stop-opacity="0.12" />
      <stop offset="100%" stop-color="#000000" stop-opacity="0" />
    </radialGradient>
  </defs>
  <rect width="1600" height="900" fill="url(#bg)" />
  <rect width="1600" height="900" fill="url(#glow)" />
  <g fill="none" stroke="#ffffff" stroke-opacity="0.12">
    <path d="M120 670 C320 540, 520 760, 720 620 S1120 560, 1480 690" stroke-width="3" />
    <path d="M140 730 C340 610, 530 820, 760 690 S1140 620, 1460 760" stroke-width="1.5" />
    <path d="M180 250 C360 170, 570 240, 760 170 S1140 120, 1420 210" stroke-width="2" stroke-dasharray="10 12" />
  </g>
  <g transform="translate(120 140)">
    <text x="0" y="0" fill="#eaf1ff" font-family="Arial, Helvetica, sans-serif" font-size="72" font-weight="700" letter-spacing="0.5">AI Voice Simulation with DDSP</text>
    <text x="0" y="92" fill="#a8b3c7" font-family="Arial, Helvetica, sans-serif" font-size="30" letter-spacing="0.4">Creative Development · Project 002</text>
    <text x="0" y="150" fill="#7f8aa3" font-family="Arial, Helvetica, sans-serif" font-size="24">Personal voice modeling, dataset construction, and controllable synthesis</text>
  </g>
  <g transform="translate(1180 610)">
    <rect x="0" y="0" width="280" height="180" rx="28" fill="#0b1020" fill-opacity="0.55" stroke="#ffffff" stroke-opacity="0.12" />
    <text x="28" y="56" fill="#cfe3ff" font-family="Arial, Helvetica, sans-serif" font-size="24" font-weight="700">DDSP</text>
    <text x="28" y="96" fill="#9eb0c9" font-family="Arial, Helvetica, sans-serif" font-size="18">In progress</text>
    <text x="28" y="132" fill="#7f8aa3" font-family="Arial, Helvetica, sans-serif" font-size="16">Updated dataset</text>
  </g>
</svg>
